# xmcd CD database file
#
# Track frame offsets:
#	150
#	36279
#	68192
#	102129
#	133908
#	165614
#	202257
#	234035
#	262828
#	298330
#
# Disc length: 4459 seconds
#
# Revision: 0
# Processed by: cddbd v1.5.1PL0 Copyright (c) Steve Scherf et al.
# Submitted via: CDex 1.51
#
DISCID=9211690a
DTITLE=X-NOISE - MENTAL NOTES
DYEAR=2005
DGENRE=Psychadelic
TTITLE0=Device Manager
TTITLE1=More Visual
TTITLE2=Red Handed
TTITLE3=Insert Silence
TTITLE4=Flying Away
TTITLE5=Flip The Script
TTITLE6=Gain Control
TTITLE7=Rock It
TTITLE8=Brain Wave
TTITLE9=The Sperminator
EXTD=YEAR: 2005
EXTT0=
EXTT1=
EXTT2=
EXTT3=
EXTT4=
EXTT5=
EXTT6=
EXTT7=
EXTT8=
EXTT9=
PLAYORDER=
